<?xml version="1.0" encoding="UTF-8" standalone="no" ?>
<!DOCTYPE svg PUBLIC "-//W3C//DTD SVG 1.1//EN" "http://www.w3.org/Graphics/SVG/1.1/DTD/svg11.dtd">
<svg xmlns="http://www.w3.org/2000/svg" xmlns:xlink="http://www.w3.org/1999/xlink" version="1.1" width="1080" height="1080" viewBox="0 0 1080 1080" xml:space="preserve">
<desc>Created with Fabric.js 5.2.4</desc>
<defs>
</defs>
<rect x="0" y="0" width="100%" height="100%" fill="transparent"></rect>
<g transform="matrix(1 0 0 1 540 540)" id="093f8a88-534b-496b-98fa-f244604e192b"  >
</g>
<g transform="matrix(1 0 0 1 540 540)" id="9ff2e8f4-1c34-49e5-ace7-a06ac6a54410"  >
<rect style="stroke: none; stroke-width: 1; stroke-dasharray: none; stroke-linecap: butt; stroke-dashoffset: 0; stroke-linejoin: miter; stroke-miterlimit: 4; fill: rgb(255,255,255); fill-rule: nonzero; opacity: 1; visibility: hidden;" vector-effect="non-scaling-stroke"  x="-540" y="-540" rx="0" ry="0" width="1080" height="1080" />
</g>
<g transform="matrix(16.7 0 0 16.7 497.48 755.8)"  >
<g style="" vector-effect="non-scaling-stroke"   >
		<g transform="matrix(1 0 0 1 2.68 -13.3)"  >
<path style="stroke: none; stroke-width: 1; stroke-dasharray: none; stroke-linecap: butt; stroke-dashoffset: 0; stroke-linejoin: miter; stroke-miterlimit: 4; fill: rgb(0,0,0); fill-rule: nonzero; opacity: 1;" vector-effect="non-scaling-stroke"  transform=" translate(-37.02, -37)" d="M 67.99 21.36 C 67.21 20.58 65.96 20.49 65.03 21.169999999999998 C 64.21000000000001 21.759999999999998 63.31 22.229999999999997 62.36 22.589999999999996 L 51.41 11.64 C 51.779999999999994 10.690000000000001 52.239999999999995 9.780000000000001 52.839999999999996 8.97 C 53.51 8.040000000000001 53.43 6.800000000000001 52.65 6.010000000000001 C 52.19 5.550000000000001 51.54 5.3100000000000005 50.89 5.36 C 50.22 5.41 49.62 5.75 49.22 6.300000000000001 C 45.48 11.440000000000001 45.46 18.66 45.86 22.89 C 41 22.43 32.72 22.560000000000002 27.65 27.630000000000003 C 22.57 32.71 22.439999999999998 40.980000000000004 22.909999999999997 45.85 C 18.679999999999996 45.45 11.459999999999997 45.47 6.319999999999997 49.21 C 5.779999999999997 49.61 5.439999999999997 50.21 5.379999999999997 50.88 C 5.329999999999997 51.53 5.569999999999998 52.18 6.029999999999998 52.64 C 6.809999999999998 53.42 8.059999999999997 53.51 8.989999999999998 52.83 C 9.809999999999999 52.239999999999995 10.709999999999999 51.769999999999996 11.659999999999998 51.41 L 22.61 62.36 C 22.24 63.31 21.78 64.22 21.189999999999998 65.03 C 20.519999999999996 65.96000000000001 20.599999999999998 67.2 21.38 67.99 C 21.8 68.41 22.369999999999997 68.64999999999999 22.96 68.64999999999999 C 23.02 68.64999999999999 23.080000000000002 68.64999999999999 23.14 68.63999999999999 C 23.810000000000002 68.58999999999999 24.41 68.24999999999999 24.810000000000002 67.69999999999999 C 28.550000000000004 62.55999999999999 28.57 55.33999999999999 28.17 51.109999999999985 C 33.04 51.569999999999986 41.31 51.43999999999998 46.38 46.36999999999998 C 51.46 41.289999999999985 51.59 33.01999999999998 51.13 28.149999999999984 C 55.36 28.549999999999983 62.58 28.529999999999983 67.72 24.789999999999985 C 68.26 24.399999999999984 68.6 23.789999999999985 68.66 23.119999999999983 C 68.69 22.47 68.45 21.82 67.99 21.36 z M 61.3 22.95 C 59.769999999999996 23.41 58.16 23.65 56.62 23.75 C 56.599999999999994 23.71 56.58 23.68 56.55 23.65 L 50.25 17.349999999999998 C 50.35 15.819999999999999 50.59 14.219999999999999 51.04 12.699999999999998 L 61.3 22.95 z M 50.46 23.54 C 50.31 22.349999999999998 50.160000000000004 20.619999999999997 50.19 18.7 L 55.3 23.81 C 53.37 23.84 51.65 23.69 50.46 23.54 z M 39.56 45.58 L 28.42 34.44 C 28.91 33.19 29.590000000000003 32.03 30.48 31.049999999999997 L 42.95 43.519999999999996 C 41.97 44.41 40.81 45.09 39.56 45.58 z M 33.89 46.77 L 27.23 40.11 C 27.34 38.589999999999996 27.580000000000002 37 28.05 35.49 L 38.510000000000005 45.95 C 37 46.41 35.41 46.66 33.89 46.77 z M 27.46 46.54 C 27.310000000000002 45.42 27.130000000000003 43.57 27.17 41.46 L 32.54 46.83 C 30.43 46.87 28.58 46.69 27.46 46.54 z M 43.65 42.8 L 31.2 30.35 C 32.2 29.470000000000002 33.37 28.810000000000002 34.63 28.340000000000003 L 45.660000000000004 39.370000000000005 C 45.19 40.63 44.53 41.8 43.65 42.8 z M 46.01 38.31 L 35.69 27.99 C 37.23 27.54 38.849999999999994 27.31 40.379999999999995 27.22 L 46.779999999999994 33.62 C 46.69 35.15 46.46 36.76 46.01 38.31 z M 41.75 27.17 C 43.74 27.150000000000002 45.48 27.32 46.54 27.46 C 46.68 28.53 46.85 30.26 46.83 32.25 L 41.75 27.17 z M 23.54 50.46 C 23.689999999999998 51.65 23.84 53.38 23.81 55.3 L 18.7 50.19 C 20.63 50.16 22.35 50.31 23.54 50.46 z M 8.38 52.02 C 7.8500000000000005 52.400000000000006 7.15 52.36000000000001 6.720000000000001 51.93 C 6.460000000000001 51.67 6.330000000000001 51.32 6.36 50.95 C 6.390000000000001 50.580000000000005 6.58 50.230000000000004 6.890000000000001 50.010000000000005 C 11.86 46.400000000000006 18.97 46.46000000000001 23.01 46.86000000000001 L 23.39 49.43000000000001 C 22.32 49.300000000000004 20.9 49.18000000000001 19.3 49.18000000000001 C 16.92 49.18000000000001 14.18 49.46000000000001 11.670000000000002 50.34 C 11.620000000000001 50.35 11.570000000000002 50.370000000000005 11.530000000000001 50.39 C 10.41 50.81 9.34 51.33 8.38 52.02 z M 12.7 51.05 C 14.219999999999999 50.589999999999996 15.82 50.36 17.35 50.25 L 23.650000000000002 56.55 C 23.680000000000003 56.58 23.720000000000002 56.599999999999994 23.750000000000004 56.62 C 23.650000000000002 58.16 23.420000000000005 59.769999999999996 22.950000000000003 61.309999999999995 L 12.7 51.05 z M 23.98 67.11 C 23.76 67.42 23.42 67.61 23.04 67.64 C 22.669999999999998 67.66 22.32 67.54 22.06 67.28 C 21.619999999999997 66.84 21.59 66.15 21.97 65.62 C 25.509999999999998 60.74 24.9 53.03 24.479999999999997 49.95 C 24.479999999999997 49.95 24.479999999999997 49.95 24.479999999999997 49.95 C 24.479999999999997 49.95 24.479999999999997 49.95 24.479999999999997 49.95 L 23.939999999999998 46.36 C 23.429999999999996 41.78 23.339999999999996 33.35 28.339999999999996 28.349999999999998 C 33.209999999999994 23.479999999999997 41.31999999999999 23.449999999999996 45.98 23.919999999999998 L 46.379999999999995 26.439999999999998 C 45.05 26.269999999999996 42.949999999999996 26.099999999999998 40.589999999999996 26.22 C 40.56999999999999 26.22 40.54 26.22 40.519999999999996 26.22 C 38.62 26.32 36.56999999999999 26.63 34.65 27.29 C 34.61 27.3 34.57 27.31 34.54 27.33 C 32.92 27.9 31.41 28.74 30.169999999999998 29.93 C 30.15 29.95 30.119999999999997 29.95 30.11 29.97 C 30.099999999999998 29.98 30.099999999999998 29.99 30.09 30 C 30.07 30.01 30.06 30.03 30.04 30.04 C 28.83 31.25 27.99 32.73 27.4 34.31 C 27.369999999999997 34.36 27.36 34.400000000000006 27.349999999999998 34.45 C 26.679999999999996 36.32 26.36 38.330000000000005 26.24 40.21 C 26.229999999999997 40.25 26.229999999999997 40.29 26.229999999999997 40.33 C 26.049999999999997 43.23 26.339999999999996 45.81 26.529999999999998 47.05 C 26.529999999999998 47.05 26.529999999999998 47.05 26.529999999999998 47.05 C 26.529999999999998 47.05 26.529999999999998 47.05 26.529999999999998 47.05 L 27.099999999999998 50.599999999999994 C 27.53 54.58 27.71 61.99 23.98 67.11 z M 45.66 45.66 C 40.79 50.529999999999994 32.67999999999999 50.559999999999995 28.019999999999996 50.089999999999996 L 27.619999999999997 47.56999999999999 C 28.65 47.699999999999996 30.129999999999995 47.839999999999996 31.839999999999996 47.839999999999996 C 32.43 47.839999999999996 33.04 47.81999999999999 33.669999999999995 47.779999999999994 C 33.67999999999999 47.779999999999994 33.69 47.78999999999999 33.699999999999996 47.78999999999999 C 33.72 47.78999999999999 33.739999999999995 47.779999999999994 33.76 47.779999999999994 C 35.64 47.66 37.66 47.339999999999996 39.53 46.66 C 39.58 46.65 39.63 46.629999999999995 39.68 46.61 C 41.27 46.019999999999996 42.75 45.17 43.96 43.97 C 43.97 43.96 43.99 43.94 44 43.92 C 44.01 43.910000000000004 44.02 43.910000000000004 44.03 43.9 C 44.050000000000004 43.879999999999995 44.06 43.86 44.07 43.83 C 45.26 42.6 46.09 41.1 46.66 39.5 C 46.699999999999996 39.43 46.72 39.36 46.73 39.29 C 47.379999999999995 37.39 47.68 35.37 47.779999999999994 33.48 C 47.779999999999994 33.459999999999994 47.779999999999994 33.44 47.779999999999994 33.41 C 47.919999999999995 30.609999999999996 47.63999999999999 28.15 47.46999999999999 26.949999999999996 C 47.46999999999999 26.949999999999996 47.46999999999999 26.949999999999996 47.46999999999999 26.949999999999996 C 47.46999999999999 26.949999999999996 47.46999999999999 26.949999999999996 47.46999999999999 26.949999999999996 L 46.89999999999999 23.399999999999995 C 46.459999999999994 19.429999999999996 46.28999999999999 12.019999999999994 50.00999999999999 6.899999999999995 C 50.22999999999999 6.589999999999995 50.56999999999999 6.399999999999995 50.94999999999999 6.369999999999995 C 51.319999999999986 6.329999999999995 51.65999999999999 6.469999999999994 51.929999999999986 6.729999999999995 C 52.36999999999998 7.1699999999999955 52.399999999999984 7.859999999999995 52.01999999999999 8.389999999999995 C 51.319999999999986 9.359999999999996 50.77999999999999 10.439999999999994 50.37999999999999 11.569999999999995 C 50.36999999999999 11.589999999999995 50.359999999999985 11.619999999999996 50.34999999999999 11.639999999999995 C 48.72999999999999 16.199999999999996 49.16999999999999 21.599999999999994 49.509999999999984 24.059999999999995 C 49.509999999999984 24.059999999999995 49.509999999999984 24.059999999999995 49.509999999999984 24.059999999999995 C 49.509999999999984 24.059999999999995 49.509999999999984 24.059999999999995 49.509999999999984 24.059999999999995 L 50.04999999999998 27.649999999999995 C 50.56 32.23 50.66 40.66 45.66 45.66 z M 67.11 23.98 C 62.14 27.59 55.03 27.53 50.989999999999995 27.13 L 50.60999999999999 24.57 C 54.029999999999994 24.97 61.05999999999999 25.29 65.61999999999999 21.98 C 66.14999999999999 21.6 66.85 21.64 67.27999999999999 22.07 C 67.53999999999999 22.330000000000002 67.66999999999999 22.68 67.63999999999999 23.05 C 67.61 23.42 67.42 23.76 67.11 23.98 z" stroke-linecap="round" />
</g>
		<g transform="matrix(1 0 0 1 -6.82 37.13)" style=""  >
		<text xml:space="preserve" font-family="'Helvetica Neue', Helvetica, Arial-Unicode, Arial, Sans-serif" font-size="5" font-style="normal" font-weight="bold" style="stroke: none; stroke-width: 1; stroke-dasharray: none; stroke-linecap: butt; stroke-dashoffset: 0; stroke-linejoin: miter; stroke-miterlimit: 4; fill: rgb(0,0,0); fill-rule: nonzero; opacity: 1; white-space: pre;" ><tspan x="-27.51" y="1.57" >Created by Azam Ishaq</tspan></text>
</g>
		<g transform="matrix(1 0 0 1 -8.08 42.13)" style=""  >
		<text xml:space="preserve" font-family="'Helvetica Neue', Helvetica, Arial-Unicode, Arial, Sans-serif" font-size="5" font-style="normal" font-weight="bold" style="stroke: none; stroke-width: 1; stroke-dasharray: none; stroke-linecap: butt; stroke-dashoffset: 0; stroke-linejoin: miter; stroke-miterlimit: 4; fill: rgb(0,0,0); fill-rule: nonzero; opacity: 1; white-space: pre;" ><tspan x="-26.25" y="1.57" >from the Noun Project</tspan></text>
</g>
</g>
</g>
</svg>