<svg xmlns="http://www.w3.org/2000/svg" xmlns:xlink="http://www.w3.org/1999/xlink" version="1.1" x="0px" y="0px" viewBox="0 0 100 125" style="enable-background:new 0 0 100 100;" xml:space="preserve"><style type="text/css">
	.st0{display:none;}
	.st1{display:inline;fill:none;stroke:#000000;stroke-width:10;stroke-miterlimit:10;}
	.st2{display:inline;fill:none;stroke:#000000;stroke-width:0.75;stroke-miterlimit:10;}
	.st3{fill:none;stroke:#000000;stroke-width:0.75;stroke-miterlimit:10;}
</style><g class="st0"><path class="st2" d="M58.1,21.1c0.1,0,0.2,0.1,0.2,0.3c0.1,0.3,0.1,0.7,0.1,1c-0.1,1.2-1.6,1.5-1.6,1.5v27.5l-4,27.9   c0,0-0.7,1.6-3.6,1.7c-2.8,0-3.6-1.7-3.6-1.7l-4-27.9V23.9c0,0-1.6-0.2-1.6-1.5c0-0.5,0-1.3,0.3-1.3c2.3,0,5.6,0,8.9,0   C52.5,21.1,55.8,21.1,58.1,21.1z M41.7,23.9h15.1 M58,23.4c0,0-0.2-0.4,5.5-0.6c1.6-0.1,1.4-1.8,1.2-2.4c-0.3-0.9-1-1.3-2.1-1.3   c-2.2,0-26.4,0-26.9,0s-0.7,2,0.3,2.1s19.8,0,26.6,0c0.3,0,0.3,0.4,0.1,0.4c-1.2,0-4.3,0-4.3,0 M43.6,39.4h11.1 M45.7,26.7h6.9    M45.6,54.3h7.1 M41.6,25.3h15.1"/></g><g><path class="st3" d="M50.8,34.1c0.1,0,0.2,0.1,0.2,0.3c0.1,0.3,0.1,0.7,0.1,1c-0.1,1.2-1.6,1.5-1.6,1.5v27.5l-4,27.9   c0,0-0.7,1.6-3.6,1.7c-2.8,0-3.6-1.7-3.6-1.7l-4-27.9V36.9c0,0-1.6-0.2-1.6-1.5c0-0.5,0-1.3,0.3-1.3c2.3,0,5.6,0,8.9,0   S48.5,34.1,50.8,34.1z M34.4,36.9h15.1 M50.7,36.3c0,0-0.2-0.4,5.6-0.6c0.3,0,1.1-0.4,1.5-0.8c0.5-0.5,1-1.3,1.4-2.4   c0.7-2.1,7.9-25.2,8.1-25.7c0.2-0.5-1.7-1.2-2.1-0.3c-0.1,0.3-0.8,2.4-1.7,5.3c-1.3,4.1-3,9.8-4.5,14.4c-0.7,2.3-1.3,4.3-1.8,5.7   c-0.1,0.3-0.6,2.5-1.8,2.5c-2.1,0-4.3,0-4.3,0 M36.3,52.3h11.1 M38.4,39.6h6.9 M38.4,67.2h7.1 M63.5,11.9c0,0,0-0.1-3.8-1.3   c-0.5-0.2-0.6,0.3-0.8,1c-4.1,12.9,0,0.1-4.1,12.9c0,0.1,0,0.5,0.6,0.7c3.6,1.1,3.6,1.1,3.6,1.1"/></g><g class="st0"><path class="st2" d="M40.9,22.1c0.1,0,0.2,0.1,0.2,0.3c0.1,0.3,0.1,0.7,0,1c-0.1,1.2-1.6,1.5-1.6,1.5l0,27.5l-4,27.9   c0,0-0.7,1.6-3.6,1.6c-2.8,0-3.6-1.7-3.6-1.7l-4-27.9l0-27.5c0,0-1.6-0.2-1.6-1.5c0-0.5,0-1.3,0.3-1.3c2.3,0,5.6,0,8.9,0   C35.3,22.1,38.6,22.1,40.9,22.1z M24.5,24.9l15.1,0 M40.8,24.3c0,0-0.2-0.4,4.8-0.7c2.1,0.1,3,0.9,4.2,0.9c2.2,0,26.4,0,26.9,0   c0.5,0,0.7-2-0.3-2.1c-0.3,0-2.5,0-5.5,0c-4.3,0-10.2,0-15.1,0c-2.4,0-4.5,0-6,0c-0.3,0,0,0.2-8.7,0 M45.4,22.3 M41.1,22.4    M26.4,40.3l11.1,0 M35.4,27.6l-6.9,0 M28.4,55.2l7.1,0 M70.9,22.4c0,0,0.1,0.2,0.1-3.8c0-0.6-0.4-0.5-1.1-0.5   c-13.5-0.1-0.1,0-13.5-0.1c-0.1,0-0.5,0.2-0.5,0.8c0,3.8,0,3.5,0,3.5"/></g><text x="0" y="115" fill="#000000" font-size="5px" font-weight="bold" font-family="'Helvetica Neue', Helvetica, Arial-Unicode, Arial, Sans-serif">Created by Julie Ko</text><text x="0" y="120" fill="#000000" font-size="5px" font-weight="bold" font-family="'Helvetica Neue', Helvetica, Arial-Unicode, Arial, Sans-serif">from the Noun Project</text></svg>