<svg xmlns="http://www.w3.org/2000/svg" xmlns:xlink="http://www.w3.org/1999/xlink" version="1.0" x="0px" y="0px" viewBox="0 0 74 92.5" style="enable-background:new 0 0 74 74;" xml:space="preserve"><path d="M67.99,21.36c-0.78-0.78-2.03-0.87-2.96-0.19c-0.82,0.59-1.72,1.06-2.67,1.42L51.41,11.64c0.37-0.95,0.83-1.86,1.43-2.67  c0.67-0.93,0.59-2.17-0.19-2.96c-0.46-0.46-1.11-0.7-1.76-0.65c-0.67,0.05-1.27,0.39-1.67,0.94c-3.74,5.14-3.76,12.36-3.36,16.59  c-4.86-0.46-13.14-0.33-18.21,4.74c-5.08,5.08-5.21,13.35-4.74,18.22c-4.23-0.4-11.45-0.38-16.59,3.36c-0.54,0.4-0.88,1-0.94,1.67  c-0.05,0.65,0.19,1.3,0.65,1.76c0.78,0.78,2.03,0.87,2.96,0.19c0.82-0.59,1.72-1.06,2.67-1.42l10.95,10.95  c-0.37,0.95-0.83,1.86-1.42,2.67c-0.67,0.93-0.59,2.17,0.19,2.96c0.42,0.42,0.99,0.66,1.58,0.66c0.06,0,0.12,0,0.18-0.01  c0.67-0.05,1.27-0.39,1.67-0.94c3.74-5.14,3.76-12.36,3.36-16.59c4.87,0.46,13.14,0.33,18.21-4.74c5.08-5.08,5.21-13.35,4.75-18.22  c4.23,0.4,11.45,0.38,16.59-3.36c0.54-0.39,0.88-1,0.94-1.67C68.69,22.47,68.45,21.82,67.99,21.36z M61.3,22.95  c-1.53,0.46-3.14,0.7-4.68,0.8c-0.02-0.04-0.04-0.07-0.07-0.1l-6.3-6.3c0.1-1.53,0.34-3.13,0.79-4.65L61.3,22.95z M50.46,23.54  c-0.15-1.19-0.3-2.92-0.27-4.84l5.11,5.11C53.37,23.84,51.65,23.69,50.46,23.54z M39.56,45.58L28.42,34.44  c0.49-1.25,1.17-2.41,2.06-3.39l12.47,12.47C41.97,44.41,40.81,45.09,39.56,45.58z M33.89,46.77l-6.66-6.66  c0.11-1.52,0.35-3.11,0.82-4.62l10.46,10.46C37,46.41,35.41,46.66,33.89,46.77z M27.46,46.54c-0.15-1.12-0.33-2.97-0.29-5.08  l5.37,5.37C30.43,46.87,28.58,46.69,27.46,46.54z M43.65,42.8L31.2,30.35c1-0.88,2.17-1.54,3.43-2.01l11.03,11.03  C45.19,40.63,44.53,41.8,43.65,42.8z M46.01,38.31L35.69,27.99c1.54-0.45,3.16-0.68,4.69-0.77l6.4,6.4  C46.69,35.15,46.46,36.76,46.01,38.31z M41.75,27.17c1.99-0.02,3.73,0.15,4.79,0.29c0.14,1.07,0.31,2.8,0.29,4.79L41.75,27.17z   M23.54,50.46c0.15,1.19,0.3,2.92,0.27,4.84l-5.11-5.11C20.63,50.16,22.35,50.31,23.54,50.46z M8.38,52.02  c-0.53,0.38-1.23,0.34-1.66-0.09c-0.26-0.26-0.39-0.61-0.36-0.98c0.03-0.37,0.22-0.72,0.53-0.94c4.97-3.61,12.08-3.55,16.12-3.15  l0.38,2.57c-1.07-0.13-2.49-0.25-4.09-0.25c-2.38,0-5.12,0.28-7.63,1.16c-0.05,0.01-0.1,0.03-0.14,0.05  C10.41,50.81,9.34,51.33,8.38,52.02z M12.7,51.05c1.52-0.46,3.12-0.69,4.65-0.8l6.3,6.3c0.03,0.03,0.07,0.05,0.1,0.07  c-0.1,1.54-0.33,3.15-0.8,4.69L12.7,51.05z M23.98,67.11c-0.22,0.31-0.56,0.5-0.94,0.53c-0.37,0.02-0.72-0.1-0.98-0.36  c-0.44-0.44-0.47-1.13-0.09-1.66c3.54-4.88,2.93-12.59,2.51-15.67c0,0,0,0,0,0c0,0,0,0,0,0l-0.54-3.59  c-0.51-4.58-0.6-13.01,4.4-18.01c4.87-4.87,12.98-4.9,17.64-4.43l0.4,2.52c-1.33-0.17-3.43-0.34-5.79-0.22c-0.02,0-0.05,0-0.07,0  c-1.9,0.1-3.95,0.41-5.87,1.07c-0.04,0.01-0.08,0.02-0.11,0.04c-1.62,0.57-3.13,1.41-4.37,2.6c-0.02,0.02-0.05,0.02-0.06,0.04  c-0.01,0.01-0.01,0.02-0.02,0.03c-0.02,0.01-0.03,0.03-0.05,0.04c-1.21,1.21-2.05,2.69-2.64,4.27c-0.03,0.05-0.04,0.09-0.05,0.14  c-0.67,1.87-0.99,3.88-1.11,5.76c-0.01,0.04-0.01,0.08-0.01,0.12c-0.18,2.9,0.11,5.48,0.3,6.72c0,0,0,0,0,0c0,0,0,0,0,0l0.57,3.55  C27.53,54.58,27.71,61.99,23.98,67.11z M45.66,45.66c-4.87,4.87-12.98,4.9-17.64,4.43l-0.4-2.52c1.03,0.13,2.51,0.27,4.22,0.27  c0.59,0,1.2-0.02,1.83-0.06c0.01,0,0.02,0.01,0.03,0.01c0.02,0,0.04-0.01,0.06-0.01c1.88-0.12,3.9-0.44,5.77-1.12  c0.05-0.01,0.1-0.03,0.15-0.05c1.59-0.59,3.07-1.44,4.28-2.64c0.01-0.01,0.03-0.03,0.04-0.05c0.01-0.01,0.02-0.01,0.03-0.02  c0.02-0.02,0.03-0.04,0.04-0.07c1.19-1.23,2.02-2.73,2.59-4.33c0.04-0.07,0.06-0.14,0.07-0.21c0.65-1.9,0.95-3.92,1.05-5.81  c0-0.02,0-0.04,0-0.07c0.14-2.8-0.14-5.26-0.31-6.46c0,0,0,0,0,0c0,0,0,0,0,0l-0.57-3.55c-0.44-3.97-0.61-11.38,3.11-16.5  c0.22-0.31,0.56-0.5,0.94-0.53c0.37-0.04,0.71,0.1,0.98,0.36c0.44,0.44,0.47,1.13,0.09,1.66c-0.7,0.97-1.24,2.05-1.64,3.18  c-0.01,0.02-0.02,0.05-0.03,0.07c-1.62,4.56-1.18,9.96-0.84,12.42c0,0,0,0,0,0c0,0,0,0,0,0l0.54,3.59  C50.56,32.23,50.66,40.66,45.66,45.66z M67.11,23.98c-4.97,3.61-12.08,3.55-16.12,3.15l-0.38-2.56c3.42,0.4,10.45,0.72,15.01-2.59  c0.53-0.38,1.23-0.34,1.66,0.09c0.26,0.26,0.39,0.61,0.36,0.98C67.61,23.42,67.42,23.76,67.11,23.98z"/><text x="0" y="89" fill="#000000" font-size="5px" font-weight="bold" font-family="'Helvetica Neue', Helvetica, Arial-Unicode, Arial, Sans-serif">Created by Azam Ishaq</text><text x="0" y="94" fill="#000000" font-size="5px" font-weight="bold" font-family="'Helvetica Neue', Helvetica, Arial-Unicode, Arial, Sans-serif">from the Noun Project</text></svg>